<svg xmlns="http://www.w3.org/2000/svg" viewBox="0 0 32 32" id="Mic"><rect width="9.83" height="15.85" x="11.05" y="7.74" rx="4.8" fill="#ffffff" class="color000000 svgShape"></rect><path d="M23.05 19.79a1 1 0 0 0-1 1c0 2-2.77 3.74-6.05 3.74S10 22.81 10 20.79a1 1 0 0 0-2 0c0 3 3 5.35 7.05 5.69V28H13.83a1 1 0 1 0 0 2h4.26a1 1 0 0 0 0-2H17V26.48c4-.34 7.05-2.72 7.05-5.69A1 1 0 0 0 23.05 19.79zM16 6a1 1 0 0 0 1-1V3.22a1 1 0 1 0-2 0V5A1 1 0 0 0 16 6zM9.93 7.45a1 1 0 0 0 .61.21 1 1 0 0 0 .79-.4 1 1 0 0 0-.19-1.4L9.52 4.63A1 1 0 1 0 8.31 6.22zM9.29 10.76a1 1 0 0 0-1-1H6a1 1 0 1 0 0 2H8.29A1 1 0 0 0 9.29 10.76zM25.93 9.75h-2.3a1 1 0 1 0 0 2h2.3a1 1 0 0 0 0-2zM21.38 7.65a1 1 0 0 0 .61-.2l1.62-1.23A1 1 0 1 0 22.4 4.63L20.78 5.85a1 1 0 0 0-.2 1.41A1 1 0 0 0 21.38 7.65z" fill="#ffffff" class="color000000 svgShape"></path></svg>